<svg version="1.1" xmlns="http://www.w3.org/2000/svg" xmlns:xlink="http://www.w3.org/1999/xlink" x="0px" y="0px" width="300px"
	 height="300px" viewBox="0 0 300 300" style="enable-background:new 0 0 300 300;" xml:space="preserve">
<style type="text/css">
	.st0{fill:none;stroke:#FFFFFF;stroke-width:7;stroke-linejoin:round;stroke-miterlimit:10;}
	.st1{fill:none;stroke:#FFFFFF;stroke-width:7;stroke-linecap:round;stroke-linejoin:round;stroke-miterlimit:10;}
	.st2{stroke:#FFFFFF;stroke-width:3;stroke-linecap:round;stroke-linejoin:round;stroke-miterlimit:10;}
	.st3{fill:#FFFFFF;stroke:#FFFFFF;stroke-linecap:round;stroke-linejoin:round;stroke-miterlimit:10;}
	.st4{fill:none;stroke:#FFFFFF;stroke-width:5;stroke-linecap:round;stroke-linejoin:round;stroke-miterlimit:10;}
	.st5{fill:none;stroke:#FFFFFF;stroke-width:10;stroke-miterlimit:10;}
</style>
<defs>
</defs>
<path class="st0" d="M226.5,122.5c0,0,15,0,16-15c0,0,1-5.24-2-9c-4-5-9.07-11.43-14-18c-1,8-8,14-13,21c0,0-3.21,6.06-2,10
	C215.5,124.5,226.5,122.08,226.5,122.5z"/>
<path class="st1" d="M222.5,111.5c4.6,2.08,7,2,11-1"/>
<path class="st1" d="M226.5,69.5c0,0-0.52-5.01-5-8c-3-2-5-3-12-1s-44,13-44,13s-4,1-8,1"/>
<polyline class="st1" points="198.5,118.5 198.5,103.5 164.5,103.5 164.5,118.5 "/>
<line class="st1" x1="174.22" y1="70.91" x2="175.5" y2="102.5"/>
<line class="st1" x1="188.67" y1="66.63" x2="187.68" y2="103.5"/>
<path class="st1" d="M181.5,118.5h12c0,0,21,0,21,29s0,79,0,79l14,1l-76-1"/>
<path class="st1" d="M169.5,118.5c0,0-16-2-20,11v51"/>
<path class="st1" d="M72.5,166.5c-7,4-12,14-11,24s14,17,14,17s36,26,39,28s11,3,11,3c22-4,39-23,42-36s-24-25-24-25"/>
<path class="st1" d="M108.5,168.5c0,0-6,6-16-3c0,0-18,13-21-5c0,0-1-10,7-11c0,0-8-20,11-15v7c0,0,5.56-14,16-14c7,0,15,4,15,14"/>
<path class="st1" d="M119.5,131.5c0,0,22-6,11,17c0,0,12,18-10,24"/>
<path class="st1" d="M82.5,190.5l30,19c0,0,9,7,18,3s15-8,15-8"/>
<line class="st1" x1="200.5" y1="148.5" x2="200.5" y2="190.5"/>
<circle class="st2" cx="200.5" cy="203.5" r="3"/>
<circle class="st3" cx="95.5" cy="85.5" r="4"/>
<circle class="st4" cx="76.5" cy="112.5" r="8"/>
<line class="st4" x1="123.5" y1="87.5" x2="123.5" y2="95.5"/>
<line class="st4" x1="123.5" y1="103.5" x2="123.5" y2="111.5"/>
<line class="st4" x1="112.5" y1="99.5" x2="119.5" y2="99.5"/>
<line class="st4" x1="127.5" y1="99.5" x2="133.5" y2="99.5"/>
<circle class="st5" cx="150" cy="150" r="145"/>
</svg>
