<svg version="1.1" xmlns="http://www.w3.org/2000/svg" xmlns:xlink="http://www.w3.org/1999/xlink" x="0px" y="0px" width="300px"
	 height="300px" viewBox="0 0 300 300" style="enable-background:new 0 0 300 300;" xml:space="preserve">
<style type="text/css">
	.st0{fill:none;stroke:#FFFFFF;stroke-width:10;stroke-miterlimit:10;}
	.st1{fill:none;stroke:#FFFFFF;stroke-width:10;stroke-linejoin:round;stroke-miterlimit:10;}
	.st2{fill:none;stroke:#FFFFFF;stroke-width:7;stroke-linecap:round;stroke-linejoin:round;stroke-miterlimit:10;}
	.st3{fill:none;stroke:#FFFFFF;stroke-width:5;stroke-linecap:round;stroke-linejoin:round;stroke-miterlimit:10;}
</style>
<defs>
</defs>
<circle class="st0" cx="150" cy="150" r="145"/>
<rect x="55" y="156" class="st1" width="26" height="63"/>
<path class="st2" d="M85,209h12l44,14c0,0,10,5,20,4s18-2,25-6s59-47,59-47s5-3,0-13s-12-2-12-2l-31,25c0,0-4,5-11,5s-40,0-40,0"/>
<path class="st2" d="M81,162h16c0,0,11-6,18-6s12,0,12,0s15,2,26,13h35c0,0,11.94,0.38,8.97,18.69"/>
<circle class="st3" cx="179.5" cy="106.5" r="37"/>
<path class="st3" d="M169.5,116.5v3c0,0,2,6,10,6.51c2.83,0.18,7-0.51,9-5.51v-5c0,0-3-6-10-9s-8-8-8-8v-4c0,0,1-7,9-7c5,0,9,1,10,5
	v6"/>
<line class="st3" x1="179.5" y1="81.5" x2="179.5" y2="87.5"/>
<line class="st3" x1="179.5" y1="133.5" x2="179.5" y2="127.5"/>
</svg>
