<svg version="1.1" xmlns="http://www.w3.org/2000/svg" xmlns:xlink="http://www.w3.org/1999/xlink" x="0px" y="0px" width="126px"
	 height="71px" viewBox="0 0 126 71" style="enable-background:new 0 0 126 71;" xml:space="preserve">
<style type="text/css">
	.st0{fill:#FFFFFF;stroke:#FFFFFF;stroke-linecap:round;stroke-miterlimit:10;}
	.st1{fill:#0071BC;stroke:#0071BC;stroke-width:0.5;stroke-miterlimit:10;}
	.st2{fill:#FFFFFF;stroke:#0071BC;stroke-width:0.5;stroke-miterlimit:10;}
	.st3{fill:#008FFF;stroke:#008FFF;stroke-width:0.5;stroke-miterlimit:10;}
	.st4{fill:#FFFFFF;stroke:#008FFF;stroke-width:0.5;stroke-miterlimit:10;}
	.st5{fill:#FFFFFF;stroke:#FFFFFF;stroke-width:0.1;stroke-miterlimit:10;}
	.st6{fill:none;stroke:#008FFF;stroke-width:0.5;stroke-miterlimit:10;}
	.st7{fill:#008FFF;}
	.st8{fill:#FBB03B;stroke:#FBB03B;stroke-linecap:round;stroke-miterlimit:10;}
	.st9{fill:#FFFFFF;stroke:#FFFFFF;stroke-width:0.5;stroke-miterlimit:10;}
</style>
<defs>
</defs>
<rect x="0.5" y="0.5" class="st0" width="125" height="70"/>
<path class="st1" d="M19.5,47.5v-19h11c0,0,5,0,5,5v5c0,0,0,4-4,4h-3c0,0-3-1-4-4h4c0,0,2,0,3-2v-2c0,0,0-2-2-2h-5v15H19.5z"/>
<path class="st1" d="M55.5,47.5v-19h-4v12c0,0,0,3-3,3h-3c0,0-3,0-3-3s0-12,0-12h-4v12c0,0,0,7,7,7h3c0,0,3,0,3-2s0,2,0,2H55.5z"/>
<polygon class="st1" points="58.5,47.5 58.5,28.5 62.5,28.5 71.5,39.5 71.5,28.5 75.5,28.5 75.5,47.5 71.5,47.5 63.5,36.5 
	63.5,47.5 "/>
<path class="st1" d="M84.5,47.5v-15h-6v-4h17v2c0,0-1,2-3,2s-3,0-3,0v15H84.5"/>
<polygon class="st1" points="112.5,47.5 104.5,28.5 100.5,28.5 92.5,47.5 97.5,47.5 98.5,44.5 106.5,44.5 107.5,47.5 "/>
<polygon class="st2" points="100.5,40.5 104.5,40.5 102.5,34.5 "/>
<path class="st3" d="M19.5,64.5v-13h8c0,0,4,0,4,5v4c0,0-1,4-4,4H19.5"/>
<path class="st4" d="M22.5,61.5v-7h4c0,0,2,0,2,2v3c0,0,0,2-2,2H22.5z"/>
<path class="st3" d="M33.5,64.5v-13h10v3h-6v2h6c0,0,0,3-3,3h-3v2h6c0,0,0,3-3,3H33.5z"/>
<path class="st3" d="M45.5,51.5h3v10h7c0,0,0,3-3,3h-7V51.5z"/>
<polygon class="st3" points="58.5,64.5 64.5,51.5 67.5,51.5 72.5,64.5 68.5,64.5 67.5,62.5 63.5,62.5 62.5,64.5 "/>
<polyline class="st5" points="64.5,59.5 66.5,59.5 65.5,56.5 64.5,59.5 "/>
<path class="st3" d="M84.5,64.5h-2v-2c0,0,0,2-2,2h-3c0,0-5,0-5-5v-3c0,0,0-5,5-5h4c0,0,3,0,3,2s0,1,0,1s0,1-1,1s-1,0-1,0s-1,0-1-1
	s-1-1-1-1h-2c0,0-2,0-2,2v4c0,0,0,2,2,2h1c0,0,3,0,3-3h2V64.5z"/>
<path class="st3" d="M90.5,51.5v9c0,0,0,1,1,1h3c0,0,1,0,1-1s0-9,0-9h3v10c0,0,0,3-3,3s-5,0-5,0s-3,0-3-3s0-10,0-10H90.5z"/>
<polygon class="st3" points="112.5,64.5 107.5,51.5 104.5,51.5 99.5,64.5 102.5,64.5 103.5,62.5 108.5,62.5 109.5,64.5 "/>
<path class="st6" d="M107.5,59.5"/>
<polygon class="st4" points="105.5,59.5 107.5,59.5 106.5,55.5 105.5,55.5 104.5,59.5 "/>
<g>
	<path class="st7" d="M10.5,30.5c7.64-5.09,16.16-8.93,25.04-11.54c8.88-2.65,18.17-3.92,27.46-3.95c4.64,0.04,9.29,0.29,13.88,0.98
		c4.59,0.7,9.14,1.62,13.58,2.95c8.88,2.6,17.39,6.46,25.04,11.55c-8.26-4-16.83-7.16-25.64-9.29c-4.41-1.03-8.86-1.88-13.35-2.4
		c-4.48-0.58-9-0.8-13.51-0.8c-4.52-0.08-9.03,0.3-13.51,0.8c-4.5,0.48-8.94,1.38-13.35,2.4C27.34,23.35,18.75,26.49,10.5,30.5z"/>
</g>
<path class="st8" d="M40.5,14.5c0.34,1.14,8.74-2.2,23-2c14.94,0.21,23.61,4.14,24,3c0.46-1.33-10.55-8.93-24-9
	C50.74,6.44,40.1,13.17,40.5,14.5z"/>
<path class="st9" d="M66.5,59.5"/>
<path class="st9" d="M65.5,56.5"/>
</svg>
