<svg version="1.1" xmlns="http://www.w3.org/2000/svg" xmlns:xlink="http://www.w3.org/1999/xlink" x="0px" y="0px" width="270px"
	 height="136.67px" viewBox="0 0 270 136.67" style="enable-background:new 0 0 270 136.67;" xml:space="preserve">
<style type="text/css">
	.st0{fill:#EB0000;stroke:#EB0000;stroke-miterlimit:10;}
	.st1{fill:#FFFFFF;stroke:#FFFFFF;stroke-miterlimit:10;}
	.st2{fill:none;stroke:#FFFFFF;stroke-miterlimit:10;}
	.st3{fill:#FFFFFF;stroke:#FFFFFF;stroke-width:3;stroke-miterlimit:10;}
	.st4{fill:none;stroke:#003560;stroke-width:2;stroke-miterlimit:10;}
	.st5{fill:#FFFFFF;stroke:#FFFFFF;stroke-width:0.1;stroke-miterlimit:10;}
	.st6{fill:#EB0000;stroke:#EB0000;stroke-width:0.1;stroke-miterlimit:10;}
</style>
<defs>
</defs>
<path class="st0" d="M0.5,42.83v39c0,0,2,9,9,14s115,39,115,39s8,3,25,0l107-33c0,0,10-3,13-16v-43c0,0-1-14-16-16l-102-25
	c0,0-16-3-31,0s-105,24-105,24S6.5,25.83,0.5,42.83z"/>
<polygon class="st1" points="24.5,49.83 24.5,87.83 48.5,87.83 48.5,78.83 34.5,78.83 34.5,49.83 "/>
<path class="st1" d="M60.5,74.83v-25h-9v25c0,0,1,13,13,13s14-10,14-12s0-26,0-26h-9v25c0,0,0,5-4,5S60.5,74.83,60.5,74.83z"/>
<polygon class="st1" points="91.5,87.83 97.5,87.83 110.5,49.83 101.5,49.83 95.5,68.83 88.5,49.83 80.5,49.83 "/>
<rect x="111.5" y="49.83" class="st1" width="9" height="38"/>
<polygon class="st1" points="122.5,87.83 131.5,87.83 134.5,81.83 143.5,81.83 145.5,87.83 155.5,87.83 142.5,49.83 135.5,49.83 "/>
<polygon class="st0" points="135.5,73.83 136.2,73.83 141.5,73.83 138.5,64.83 "/>
<polygon class="st1" points="156.5,87.83 165.5,87.83 165.5,69.83 177.5,87.83 184.5,87.83 184.5,49.83 175.5,49.83 175.5,67.83 
	163.5,49.83 156.5,49.83 "/>
<path class="st2" d="M187.5,87.83"/>
<path class="st2" d="M165.5,87.83"/>
<polyline class="st1" points="199,49.83 189.5,49.83 189.5,87.83 198.5,87.83 198.5,75.83 201.5,71.83 210.5,87.83 218.5,87.83 
	218.5,83.83 207.5,64.83 219.5,49.83 209.5,49.83 198.5,61.83 198.5,49.83 "/>
<polygon class="st1" points="94.5,39.83 97.5,39.83 97.5,34.83 102.5,34.83 102.5,31.83 97.5,31.83 97.5,28.83 103.5,28.83 
	103.5,26.83 94.5,26.83 "/>
<line class="st3" x1="106.5" y1="40.33" x2="106.5" y2="26.33"/>
<path class="st4" d="M110.7,36.96"/>
<path class="st4" d="M119,36.83"/>
<polygon class="st5" points="109,40.33 112,40.33 113,37.33 116,37.33 117,40.33 120,40.33 116,26.33 113,26.33 "/>
<polygon class="st6" points="113,35.33 116,35.33 115,30.33 114,30.33 "/>
<polygon class="st5" points="121,40.33 124,40.33 124,33.33 126,37.33 129,37.33 131,33.33 131,40.33 134,40.33 134,26.33 
	131,26.33 128,32.33 127,32.33 124,26.33 121,26.33 "/>
<path class="st5" d="M136,40.33h7c0,0,3,0,3-3v-1c0,0,0-3-2-3c0,0,2,0,2-2v-2c0,0-1-3-3-3h-7V40.33"/>
<path class="st6" d="M139,34.33v4h3c0,0,2-2,0-4H139"/>
<path class="st6" d="M139,28.33v4h3c0,0,2-2,0-4H139z"/>
<path class="st5" d="M148,26.33v14h3v-6h1l3,6h3v-1l-3-5c0,0,3,0,3-3v-2c0,0,0-3-3-3H148z"/>
<path class="st6" d="M151,28.33v4h3c0,0,1,0,1-1c0-1,0-2,0-2s0-1-1-1S151,28.33,151,28.33z"/>
<polyline class="st5" points="159,26.33 159,40.33 168,40.33 168,37.33 162,37.33 162,35.33 168,35.33 168,31.33 162,31.33 
	162,29.33 168,29.33 168,26.33 159,26.33 "/>
<path class="st5" d="M171,40.33h6c0,0,2-1,2-3v-2c0,0,0-3-2-3s0,0,0,0h-3c0,0-1,0-1-1c0-1,0-2,0-2s0-1,1-1s1,0,1,0h1c0,0,1,0,1,1h2
	v-2c0,0,0-1-1-1h-6c0,0-2,0-2,2s0,4,0,4s1,2,3,2h2c0,0,1,0,1,1s0,1,0,1s0,1-1,1s-5,0-5,0v3H171z"/>
<polyline class="st1" points="219,87.83 232,49.83 239,49.83 252,87.83 242,87.83 240,81.83 231,81.83 228,87.83 219,87.83 "/>
<path class="st2" d="M252,87.83"/>
<polygon class="st0" points="232,73.83 232.7,73.83 238,73.83 235,64.83 "/>
</svg>
