<svg version="1.1" xmlns="http://www.w3.org/2000/svg" xmlns:xlink="http://www.w3.org/1999/xlink" x="0px" y="0px" width="300px"
	 height="300px" viewBox="0 0 300 300" style="enable-background:new 0 0 300 300;" xml:space="preserve">
<style type="text/css">
	.st0{fill:none;stroke:#FFFFFF;stroke-width:10;stroke-miterlimit:10;}
	.st1{fill:none;stroke:#FFFFFF;stroke-width:5;stroke-miterlimit:10;}
	.st2{fill:none;stroke:#FFFFFF;stroke-width:3;stroke-linecap:round;stroke-miterlimit:10;}
	.st3{fill:none;stroke:#FFFFFF;stroke-width:4;stroke-miterlimit:10;}
	.st4{fill:none;stroke:#FFFFFF;stroke-width:3;stroke-miterlimit:10;}
</style>
<defs>
</defs>
<circle class="st0" cx="150" cy="150" r="145"/>
<path class="st1" d="M98,232c0,0,7,2,17-8c0.5-0.5,47.6-39.6,49.5-41.5c2-2,9.8-8,20-8c1,0,2,0,3-2l6-9c0,0,2-10-3-11s-69-40-69-40
	s-8-7-12,0s-6,9-6,9s-2,5,1,6s5,4,5,10s-14,76-14,76C90.5,226.5,98,232,98,232z"/>
<line class="st2" x1="116" y1="220" x2="105" y2="178"/>
<line class="st2" x1="133.5" y1="205.5" x2="120.5" y2="158.5"/>
<path class="st2" d="M142,153c3.14,12.53,7.32,24.73,10.38,36.75"/>
<line class="st2" x1="162.5" y1="164.5" x2="105" y2="178"/>
<line class="st2" x1="157" y1="183" x2="100.5" y2="200.5"/>
<path class="st3" d="M159.5,126.5l-24-14c0,0-9-2-13-15s8-18,8-18s8-3,14,1s7,4,7,4c4-1,3-2,3-2c-1-11,0-16,0-16s4-8,11-8s11,0,15,2
	s13,0,13,0s5-1,10-6c0,0,6,8,4,14s-8,11-8,11s13,6,13,16s-13,17-13,17s11,7,11,14s-1,7-1,7s-3,14-19,11L159.5,126.5z"/>
<path class="st4" d="M127,82c0,0,3.05,2.06,4.07,6.19c1.02,4.13,4.07,10.32,6.11,12.38c2.04,2.06,8.15,6.19,17.31,3.1
	c9.16-3.1,13.24,1.03,13.24,1.03s7.13,4.13,7.13,10.32c0,6.19,7.13,12.38,7.13,12.38s5.09,4.13,11.2,3.1
	c6.11-1.03,17.22-0.83,17.22-0.83"/>
</svg>
