<svg version="1.1" xmlns="http://www.w3.org/2000/svg" xmlns:xlink="http://www.w3.org/1999/xlink" x="0px" y="0px" width="300px"
	 height="300px" viewBox="0 0 300 300" style="enable-background:new 0 0 300 300;" xml:space="preserve">
<style type="text/css">
	.st0{fill:none;stroke:#FFFFFF;stroke-width:10;stroke-miterlimit:10;}
	.st1{fill:none;stroke:#FFFFFF;stroke-width:15;stroke-miterlimit:10;}
	.st2{fill:none;stroke:#000000;stroke-width:15;stroke-miterlimit:10;}
	.st3{fill:#FFFFFF;stroke:#FFFFFF;stroke-miterlimit:10;}
</style>
<defs>
</defs>
<circle class="st0" cx="150" cy="150" r="145"/>
<path class="st1" d="M110,218c97.37,50.85,162.61-75.34,92-131c-81.51-64.25-166.24,41.1-121,98l-10,43L110,218z"/>
<path class="st2" d="M129.5,141.5"/>
<path class="st3" d="M140.5,156.5c-6.14-5.15-9.18-12.36-10-13c-2-2,0-4,0-4l4-6c3-7,0-11,0-11l-6-11c-2-3-3-4-9-2
	c-4.67,1.56-6.31,3.72-6.81,4.6c-0.16,0.28-0.44,0.45-0.62,0.71c-6.57,9.69-4.57,17.69-1.57,24.69c5,11,10,18,20,28s35,19,35,19
	c3,1,6.59,3.55,16-1c7.71-3.73,8.72-4.69,11-10c3-7-3.45-10.97-7-13c-7-4-8.62-5.06-13-5c-2.45,0.04-1.39-0.4-9,9
	c-1.72,2.12-2,3-6,1C150.99,164.24,140.5,156.5,140.5,156.5z"/>
</svg>
