<svg version="1.1" xmlns="http://www.w3.org/2000/svg" xmlns:xlink="http://www.w3.org/1999/xlink" x="0px" y="0px"
	 width="153.04px" height="57.14px" viewBox="0 0 153.04 57.14" style="enable-background:new 0 0 153.04 57.14;"
	 xml:space="preserve">
<style type="text/css">
	.st0{fill:#FBB03B;stroke:#FF0000;stroke-linecap:round;stroke-miterlimit:10;}
	.st1{fill:#FF0000;stroke:#FF0000;stroke-linecap:round;stroke-miterlimit:10;}
	.st2{fill:#FBB03B;stroke:#F7931E;stroke-linecap:round;stroke-miterlimit:10;}
	.st3{fill:#FF0000;stroke:#FF0000;stroke-width:0.5;stroke-linecap:round;stroke-miterlimit:10;}
	.st4{fill:#FBB03B;stroke:#FBB03B;stroke-width:0.5;stroke-linecap:round;stroke-miterlimit:10;}
	.st5{fill:#FF0000;}
</style>
<defs>
</defs>
<path class="st0" d="M33.54,11.5l112-1c0,0,7-1,7,6v34c0,0-1,6-7,6s-136,0-136,0s-9,2-9-9v-29c0,0-1-7,7-7h3c0,0,0-11,12-11
	S33.54,11.5,33.54,11.5z"/>
<path class="st1" d="M26.54,20.5v21c0,0-1,5,6,5h12c0,0,9,0,9-8v-12c0,0,0-10-10-10h-13C30.54,16.5,26.54,16.5,26.54,20.5z"/>
<path class="st2" d="M33.54,21.5v20h8c0,0,5,0,5-5v-10c0,0,0-5-5-5H33.54z"/>
<path class="st3" d="M61.54,36.5h18v-5c0,0-1-8-9-8h-7c0,0-8-1-8,8v8c0,0-1,7,6,7h10c0,0,6,0,6-4v-2c0,0,0-2-2-2h-1c0,0-2,0-2,2v1
	c0,0,0,1-1,1s-6,0-6,0s-4,0-4-4V36.5z"/>
<path class="st4" d="M62.04,34h11.5c0,0,0-5.5-3.83-5.5h-3.83C65.87,28.5,62.04,28.5,62.04,34z"/>
<path class="st1" d="M79.54,48.5v-23c0,0,0-2,2-2h15c0,0,6,0,6,10v5c0,0,1,8-7,8h-4c0,0-5,1-5-4v6c0,0,0,2-2,2s0,0,0,0h-3
	C81.54,50.5,79.54,50.5,79.54,48.5"/>
<path class="st2" d="M86.54,37.5v-6c0,0,0-3,3-3h3c0,0,3,0,3,3v6c0,0,0,4-3,4h-3C89.54,41.5,86.54,41.5,86.54,37.5z"/>
<path class="st1" d="M106.54,46.5c0,0-1,0-1-1s0-20,0-20s0-2,2-2s2,0,2,0s2,0,2,2v20c0,0,0,1-1,1H106.54z"/>
<path class="st1" d="M120.54,30.5v15c0,0,0,1,1,1h3c0,0,2,0,2-2s0-17,0-17s0-5-6-5h-5c0,0-4,1-4,4v3.79c0,0,0-2.79,4-2.79h2
	C117.54,27.5,120.54,27.5,120.54,30.5z"/>
<circle class="st1" cx="107.54" cy="18.5" r="2"/>
<g>
	<path class="st5" d="M17.54,9.5c0.5-0.05,0.97,0,1.44,0.03c0.46,0.06,0.92,0.12,1.36,0.22c0.89,0.19,1.74,0.47,2.57,0.82
		l-1.37,0.93c0.01-0.83,0.08-1.67,0.23-2.5c0.16-0.83,0.37-1.67,0.77-2.5c0.41,0.83,0.61,1.67,0.77,2.5
		c0.15,0.83,0.22,1.67,0.23,2.5l0.01,1.46l-1.38-0.53c-0.84-0.32-1.65-0.71-2.43-1.18c-0.39-0.23-0.77-0.5-1.14-0.78
		C18.24,10.17,17.87,9.88,17.54,9.5z"/>
</g>
<g>
	<path class="st5" d="M25.54,15.5c-0.79-0.45-1.45-1-2.08-1.57c-0.62-0.58-1.19-1.19-1.71-1.84l1.41,0.18
		c-0.81,0.7-1.67,1.33-2.59,1.88c-0.93,0.54-1.9,1.04-3.02,1.35c0.54-1.03,1.24-1.87,1.98-2.65c0.75-0.78,1.55-1.48,2.41-2.12
		l0.84-0.63l0.56,0.81c0.48,0.68,0.91,1.4,1.29,2.16C24.99,13.83,25.33,14.61,25.54,15.5z"/>
</g>
<g>
	<path class="st5" d="M27.58,9.59c-0.36,0.32-0.73,0.58-1.1,0.87c-0.37,0.28-0.75,0.53-1.14,0.78c-0.39,0.25-0.7,0.66-1.18,0.69
		c-0.47,0.04-0.96,0.01-1.58-0.34c-0.07-0.04-0.1-0.12-0.07-0.19c0.21-0.68,0.55-1.04,0.92-1.34c0.36-0.3,0.88-0.23,1.32-0.31
		c0.45-0.09,0.9-0.16,1.36-0.22c0.47-0.04,0.92-0.11,1.4-0.13c0.06,0,0.11,0.04,0.11,0.1C27.61,9.54,27.6,9.57,27.58,9.59z"/>
</g>
</svg>
