<svg version="1.1" xmlns="http://www.w3.org/2000/svg" xmlns:xlink="http://www.w3.org/1999/xlink" x="0px" y="0px"
	 width="229.51px" height="184.5px" viewBox="0 0 229.51 184.5" style="enable-background:new 0 0 229.51 184.5;"
	 xml:space="preserve">
<style type="text/css">
	.st0{fill:#F7931E;stroke:#F7931E;stroke-width:2;stroke-miterlimit:10;}
	.st1{fill:none;stroke:#000000;stroke-width:2;stroke-miterlimit:10;}
	.st2{fill:#F7931E;stroke:#FFFFFF;stroke-miterlimit:10;}
	.st3{fill:#F7931E;stroke:#000000;stroke-width:0.5;stroke-miterlimit:10;}
	.st4{stroke:#000000;stroke-width:0.5;stroke-miterlimit:10;}
	.st5{stroke:#000000;stroke-width:0.5;stroke-linecap:round;stroke-miterlimit:10;}
	.st6{fill:none;stroke:#000000;stroke-width:0.5;stroke-miterlimit:10;}
	.st7{fill:#F7931E;stroke:#F7931E;stroke-width:0.5;stroke-miterlimit:10;}
	.st8{fill:none;stroke:#EB0000;stroke-width:0.5;stroke-miterlimit:10;}
</style>
<defs>
</defs>
<polygon class="st0" points="2.01,13.5 1.01,183.5 216.01,183.5 216.01,13.5 "/>
<polyline class="st1" points="134.93,46.91 140.51,52 111.51,82 82.51,52 86.98,47.47 "/>
<path class="st2" d="M111.51,72l28-30c0,0-25-28-57,1L111.51,72z"/>
<path class="st3" d="M44.97,91.56c1.26-6.21,4.39-13.72,10.53-15.56c0,0,6-3,6,4c0,8.54-17,11-17,11"/>
<path class="st4" d="M44.51,94c0,0,17.26,2.41,22-13c4-13-14-9-17-7c0,0-12,7-14,18c0,0-1,6,0,12c0.84,5.03,7,6,7,6s3,1,7,0
	s10-7,10-15c0,0-3,7-7,8h-4c0,0-3.46,0-4.23-4c-0.77-4,0.84-7.87,0.84-7.87C46.51,80,58.07,71.54,60.91,76.16
	C64.51,82,45.11,90.9,45.11,90.9"/>
<path class="st3" d="M42.87,79.25c0,0-13.04-1.1-11.37,4.75c2,7,5,5,4.64,5.5C36.15,89.5,37.24,84.49,42.87,79.25z"/>
<path class="st5" d="M48.24,82.43c0,0,3.26,1.57,4.26,3.57c0,0-2.17-4.8-3.08-5.4"/>
<path class="st5" d="M42.66,79.23l1.93-1.57c0,0-10.08-3.66-15.08,2.34s5.97,12.19,5.97,12.19l0.51-2.69c0,0-1.9-0.07-3.19-2.29
	C31.51,85,31.51,84,31.51,84S29.66,78.23,42.66,79.23z"/>
<path class="st4" d="M72.51,106c0,0-1,1-6,3s-5-5-5-5s4-11,12-15c0,0,6-2,9,2S72.51,106,72.51,106z"/>
<line class="st6" x1="61.51" y1="100" x2="65.82" y2="96.02"/>
<path class="st6" d="M75.51,92"/>
<path class="st7" d="M69.51,101c0,0-1,3,0,3s2,0,3-1s5-5,6-7c0,0,2-5-1-4S69.51,101,69.51,101z"/>
<path class="st6" d="M74.51,99"/>
<path class="st4" d="M80.61,89.36c0,0-0.11-4.36,2.89-4.36s3,4,3,4s-1,9-5,12s1,2,1,2s2-1,3-2s13-19,13-11s-2,15-2,15s-1,2,0,3
	s5-8,5-8s1-3,1-11s5-1,5-1s1,3,0,6s-13,26-22,28c0,0-6,3-9,0s3-8,3-8s9-5,11-4s3-12,1-12s-5,5-7,7s-5,5-8,5s-3.2-4.7-3.2-4.7"/>
<path class="st7" d="M79.51,121c0,0,2,1,4,0s5-5,5-6s1-3-2-2s-8,4-8,6C78.51,119,78.51,120,79.51,121z"/>
<path class="st4" d="M100.38,107.05c0,0,2.13-0.05,7.13-6.05s12-11,12-11s5-3,8,1c3,4-7,11-7,11s-1,1-3,1s-2,2-2,2s0,1,2,1s4-1,4-1
	s3-1,8-6c5-5,12-18,12-18s6-10,6,1c0,0-4,11-7,14s-3,6-3,6s-1,3,3,1c0,0,1.3-0.65,2.85-2.48c0.37-0.44,0.76-0.94,1.15-1.52
	c0,0,5-6,8-8s6-2,6-2s2,0,4,1s3,4,3,4s0,2-1,4s-5,6-10,9c0,0-1,1-5,2c-4.34,1.08-6-1-6-1s-1-3,0-6c0,0-3,6-8,8s-7-2-7-2s-1-4,3-7
	c4-3,0-2,0-2s-8,9-11,10s-6,2-9,0s-2-7-2-7s-4,5-7,6s-3.69,1.39-3.69,1.39"/>
<path class="st7" d="M122.51,93c0,0-2,1-3,3s-1,3,1,2s4-4,4-4S125.51,91,122.51,93"/>
<path class="st7" d="M156.51,94c0,0-4,3-5,7s1,3,1,3s6-3,7-8S156.51,94,156.51,94z"/>
<path class="st4" d="M163.08,90.36c0,0-0.58-3.36,1.42-4.36s3,3,3,3s0,5-2,6"/>
<path class="st4" d="M168.51,102c0,0,0,0,2-5s10-9,10-9s7-2,8,2s-2,6-2,6c-6,2-3-2-3-2s3-3-1-2s-6,9-6,10s1,4,3,4s9-7,9-7
	c-1,4-6,8-6,8l-4,2c0,0-5,2-8,0S168.51,102,168.51,102c-4,5-8,7-8,7c-7,3-5.37-2.39-5.37-2.39l8.33-7.07c0,0-2.96,4.46-1.96,4.46
	s4.51,0.23,8.75-6.39"/>
<path class="st4" d="M188.3,99.67c0,0-18.79,39.33-50.79,42.33c0,0-8,1-13,0c-5-1-13-5-27-6s-50,1-73,20c0,0,11-21,46-26s52,2,52,2
	s14,4,26,0S171.3,124.67,188.3,99.67z"/>
<path class="st4" d="M62.76,101.15c-3.74,2.15-1.26-1.15-1.26-1.15l3.32-3.07L62.76,101.15z"/>
<path class="st8" d="M229.51,0"/>
<path class="st8" d="M227.51,23"/>
</svg>
