<svg version="1.1" xmlns="http://www.w3.org/2000/svg" xmlns:xlink="http://www.w3.org/1999/xlink" x="0px" y="0px"
	 width="262.14px" height="168.91px" viewBox="0 0 262.14 168.91" style="enable-background:new 0 0 262.14 168.91;"
	 xml:space="preserve">
<style type="text/css">
	.st0{fill:#C8007A;stroke:#9E005D;stroke-miterlimit:10;}
	.st1{fill:#FFFFFF;stroke:#9E005D;stroke-miterlimit:10;}
	.st2{fill:none;stroke:#9E005D;stroke-miterlimit:10;}
</style>
<defs>
</defs>
<path class="st0" d="M21.5,1.01c0,0,14,31,69,31c0,0,25,0,50-6c0,0,41-17,61-16s33,9,33,9s28,21,27,63c0,0,2,16-9,44l-19,42l-24-27
	c0,0-17-24-61-27c0,0-17-1-37,5c0,0-25,10-46,8c0,0-29,1-44-11c0,0-21-11-21-48S21.5,1.01,21.5,1.01z"/>
<path class="st1" d="M23.5,44.01c0,0,5,7,15,7s23-9,23-9s3-3,7,0v29c0,0,7-1,11-5v-15c0,0-1-2-3-4c0,0-3-5,3-5s9,1,9,1v20
	c0,0,8-1,8,5s-7,6-7,6s-3,15,9,27c0,0-11,4-17-5v-19c0,0-1-5-5-3l-4,2c0,0-3,1-3,3s0,5,0,5s0,3,2,6s-3,5-3,5h-5c0,0-4-1-4-6s0-6,0-6
	s-1-2-3,0s-7,2-7,2s-10,0-10-6s5-8,5-8s11,5,14,1v-23c0,0-1-2-3,0s-22,12-27,12s-10-2-10-6S23.5,44.01,23.5,44.01z"/>
<path class="st1" d="M108.5,92.01c0,0-4-1-4-6c0,0,13-2,13-12s-9-9-9-9s-15,2-15,17s15,15,15,15s10-1,10-5
	c0-2.89-0.52-4.21-0.81-4.73c-0.11-0.2-1.19-2.27-3.19-0.27C114.5,87.01,113.5,92.01,108.5,92.01z"/>
<path class="st0" d="M107.5,72.01c0,0-4,1-4,10c0,0,0,1,2,0s4-2,4-5S109.5,73.01,107.5,72.01z"/>
<path class="st2" d="M110.5,72.01"/>
<path class="st1" d="M121.5,50.01v30v12c0,0-1,6,5,8s7-4,7-4s-3-1-4-6v-15c0,0,1-9,3-20S123.5,44.01,121.5,50.01z"/>
<path class="st1" d="M149.5,70.01c0,0,3-1,4,0s1,19,1,19s1,6,6,8s-4,3-7,3s-5-2-5-5v-4c0,0-1-6-3,0s-7,5-7,5s-7,1-7-11s8-19,12-19
	S149.5,70.01,149.5,70.01z"/>
<path class="st0" d="M144.5,73.01c0,0-4,5-4,15c0,0,0,2,2,1s4-9,4-14S144.5,73.01,144.5,73.01"/>
<path class="st1" d="M165.5,96.01c0,0-6,1-6-4c0,0-1-2,0-7s1-5,1-9s0-7,0-7s-1-3-4-3s-4,0-4,0s0-7,8-7s9,10,9,10s2-5,7-5s6,5,6,5
	s1-4,7-4s6,5,6,5v21c0,0,0,5,6,5s31-13,38-13s10,6,10,6v5c0,0,1,4-4,2s-10-2-10-2s-11,1-16,3c0,0-13,6-21,6s-11-5-11-9s0-19,0-19
	s-2-5-5-2c0,0-1,3-1,9s1,8,1,8s3,6-4,6s-5-6-5-6v-9c0,0,1-6,0-7s-3-3-5,0v14c0,0,0,4,2,5s0,3,0,3H165.5z"/>
<path class="st1" d="M208.5,68.01c0,0-4-7-9,0v22c0,0,1,3,5,3s5-2,5-2s2-2,0-3s-2-4-2-4L208.5,68.01z"/>
<path class="st1" d="M186.5,60.01c0,0-3-3-3-8s3-7,6-7s18,8,23,8s4-7,4-7s5,13-3,14c0,0-3,0-6-2s-11-3-11-3S190.5,53.01,186.5,60.01
	z"/>
<path class="st1" d="M208.5,33.01c0,0-7,0-5,6s9,4,9,4S215.5,35.01,208.5,33.01z"/>
</svg>
