<svg version="1.1" xmlns="http://www.w3.org/2000/svg" xmlns:xlink="http://www.w3.org/1999/xlink" x="0px" y="0px" width="300px"
	 height="300px" viewBox="0 0 300 300" style="enable-background:new 0 0 300 300;" xml:space="preserve">
<style type="text/css">
	.st0{fill:none;stroke:#FFFFFF;stroke-width:10;stroke-miterlimit:10;}
	.st1{fill:none;stroke:#FFFFFF;stroke-width:5;stroke-miterlimit:10;}
	.st2{fill:none;stroke:#FFFFFF;stroke-width:5;stroke-linecap:round;stroke-miterlimit:10;}
</style>
<defs>
</defs>
<circle class="st0" cx="150" cy="150" r="145"/>
<path class="st1" d="M159.5,57.5c-8.92,15.55,2.4,42.02,14,56c10.84,13.06,46.54,35.05,60,18c10.56-13.37-18.73-47.2-23-51
	C192.5,64.5,171.04,54.68,159.5,57.5z"/>
<path class="st2" d="M170.5,71.5c0,0-2,5,0,13s2,7,3,10s8.29,10.29,9,11c3,3,8,9,10,10s14,10,19,8s6-2,7-4s-2-15-4-18s-16-15-20-17
	s-6-2-9-1s-2,6,0,9s19,15,19,15"/>
<path class="st2" d="M156.5,163.5c0,0,4,0,5-1"/>
<path class="st2" d="M171.5,160.5c0,0,8-1,12-2s18-12,18-12"/>
<path class="st1" d="M230.45,134.45L207.5,158.5c0,0-17.91,14.72-23,15c-18,1-28,2-28,2c-12,2-17.17,5.33-25,8
	c-6.69,2.28-12.15-0.31-16,2c-6.01,3.61-8,10-8,10s-5,6-5,16s0,8,0,8s0,4-4,6h-8c0,0-7-2-6.5-10.5c0.43-7.27,0-10,0-10
	c-0.5-1.5-2.5-1.5-2.5-1.5h-10c-7,0-7-5-7-5v-9c1.13-4.92,1.34-4.88,6-6h16c4,0,7-2,7-2l11-7c0,0-1-2.93-1-10c0-7,1-8,1-8s3-4,5-8
	s2-16,2-16v-13c0,0,0-11,4-18s19-29,44-44"/>
<path class="st1" d="M115.5,185.5c-16-13-11-11-11-11"/>
</svg>
